<?xml version="1.0" encoding="UTF-8"?>
<svg xmlns="http://www.w3.org/2000/svg" id="Layer_3" data-name="Layer 3" viewBox="0 0 64 64" width="512" height="512"><path d="M62,1H42a1,1,0,0,0-1,1V14.32a24.964,24.964,0,0,0-18,.766V10a1,1,0,0,0-1-1H2a1,1,0,0,0-1,1V24a1,1,0,0,0,1,1h9.644a25.006,25.006,0,1,0,34.9-8H62a1,1,0,0,0,1-1V2A1,1,0,0,0,62,1ZM30.812,39.188a6.189,6.189,0,0,0,8.516.223l3.42-3.078a9.233,9.233,0,0,1,6.183-2.372h.826a9.171,9.171,0,0,1,6.177,2.381c.039.548.066,1.1.066,1.658a23.03,23.03,0,0,1-.2,3H48.536A4.54,4.54,0,0,0,44,45.535a2.52,2.52,0,0,1-.743,1.793,6.615,6.615,0,0,0,0,9.344L44.5,57.909A22.85,22.85,0,0,1,39,60.2V52.535A9.536,9.536,0,0,0,29.464,43,3.469,3.469,0,0,1,26,39.535V38.85a5.425,5.425,0,0,0-1.6-3.865A17.266,17.266,0,0,0,23,33.74V25.127A7.515,7.515,0,0,1,29,32.5v2.316A6.15,6.15,0,0,0,30.812,39.188ZM21,11v5H3V11ZM3,18H21v5H3Zm18,7v7.369A16.9,16.9,0,0,0,12.364,30h-.92a22.9,22.9,0,0,1,2.6-5ZM10,38a23.039,23.039,0,0,1,.8-6h1.559A14.9,14.9,0,0,1,21,34.743V48h2V36.417a3.443,3.443,0,0,1,1,2.433v.685A5.47,5.47,0,0,0,29.464,45,7.535,7.535,0,0,1,37,52.535v8.11A22.977,22.977,0,0,1,10,38ZM46.219,56.805l-1.548-1.547a4.614,4.614,0,0,1,0-6.516A4.5,4.5,0,0,0,46,45.535,2.539,2.539,0,0,1,48.536,43h6.91A23.054,23.054,0,0,1,46.219,56.805Zm9.352-23.213a11.16,11.16,0,0,0-5.814-1.631h-.826a11.221,11.221,0,0,0-7.521,2.886l-3.42,3.078A4.189,4.189,0,0,1,31,34.812V32.5a9.53,9.53,0,0,0-8-9.408v-5.8a22.967,22.967,0,0,1,18-.856V31h2V17.291A23.074,23.074,0,0,1,55.571,33.592ZM61,3V5H43V3Zm0,4v4H43V7ZM43,15V13H61v2Z"/></svg>
