<?xml version="1.0" encoding="iso-8859-1"?>
<!-- Generator: Adobe Illustrator 19.0.0, SVG Export Plug-In . SVG Version: 6.00 Build 0)  -->
<svg version="1.1" id="Capa_1" xmlns="http://www.w3.org/2000/svg" xmlns:xlink="http://www.w3.org/1999/xlink" x="0px" y="0px"
	 viewBox="0 0 511.5 511.5" style="enable-background:new 0 0 511.5 511.5;" xml:space="preserve">
<g>
	<g>
		<rect x="183.6" y="128.1" width="16" height="15"/>
	</g>
</g>
<g>
	<g>
		<rect x="247.7" y="128.1" width="16" height="15"/>
	</g>
</g>
<g>
	<g>
		<rect x="215.7" y="128.1" width="16" height="15"/>
	</g>
</g>
<g>
	<g>
		<rect x="279.7" y="128.1" width="16" height="15"/>
	</g>
</g>
<g>
	<g>
		<rect x="311.8" y="128.1" width="16" height="15"/>
	</g>
</g>
<g>
	<g>
		<path d="M463.4,464.5v-11.6L451,440.5h-3.6V303.3h24v-47h-88.1v-24.5h-15v24.5H143.1v-58.6c0-12.4,10.1-22.5,22.5-22.5h180.2
			c12.4,0,22.5,10.1,22.5,22.5v18h15v-18c0-18.8-13.9-34.5-32-37.1v-24.9c0-21.8-17.7-39.5-39.5-39.5h-48.5v-41h64.1V11.5
			c0-6.3-5.2-11.5-11.5-11.5h-67.6v55.1v41h-48.5c-21.8,0-39.5,17.7-39.5,39.5v24.9c-18.1,2.7-32,18.3-32,37.1v58.6H40v47h24v80.6
			h15v-80.6h9v137.1h-9v-40.5H64v40.5h-3.6L48,452.7v11.8H0v47h511.5v-47H463.4z M263.3,15h49v25h-49V15z M175.1,135.6
			c0-13.5,11-24.5,24.5-24.5h112.1c13.5,0,24.5,11,24.5,24.5v24.5H175.1V135.6z M448.4,459.1v5.4h-41v-5.4l3.6-3.6h33.8L448.4,459.1
			z M362.9,440.4h-3.6V303.3h49v137.1h-3.6l-12.4,12.4v11.7h-17v-11.6L362.9,440.4z M356.7,455.4l3.6,3.6v5.4h-41V459l3.6-3.6H356.7
			z M335.3,440.4V303.3h9v137.1H335.3z M423.4,440.4V303.3h9v137.1H423.4z M55,288.3v-17h401.4v17H287.7v15h32.5v137.1h-3.5
			l-12.4,12.4v11.7h-17v-64.6c0-17.4-14.1-31.5-31.5-31.5c-17.4,0-31.5,14.1-31.5,31.5v64.6h-17v-11.6l-12.6-12.5h-3.6V303.3h80.6
			v-15H55z M272.2,399.9v64.6h-33v-64.6c0-9.1,7.4-16.5,16.5-16.5C264.8,383.4,272.2,390.8,272.2,399.9z M106.7,440.4h-3.6V303.3h49
			v137.1h-3.6l-12.4,12.4v11.7h-17v-11.6L106.7,440.4z M151.1,459l3.6-3.6h33.8l3.6,3.6v5.4h-41V459z M167.1,440.4V303.3h9v137.1
			H167.1z M63,459.1l3.6-3.6h33.8l3.6,3.6v5.4H63V459.1z M496.5,496.5h-0.1H15v-17h481.5V496.5z"/>
	</g>
</g>
<g>
	<g>
		<rect x="208.2" y="319.8" width="15" height="32"/>
	</g>
</g>
<g>
	<g>
		<rect x="248.2" y="319.8" width="15" height="32"/>
	</g>
</g>
<g>
	<g>
		<rect x="288.2" y="319.8" width="15" height="32"/>
	</g>
</g>
<g>
	<g>
		<rect x="376.3" y="319.8" width="15" height="32"/>
	</g>
</g>
<g>
	<g>
		<rect x="376.3" y="367.9" width="15" height="16"/>
	</g>
</g>
<g>
	<g>
		<rect x="376.3" y="399.9" width="15" height="16"/>
	</g>
</g>
<g>
	<g>
		<rect x="120.1" y="319.8" width="15" height="32"/>
	</g>
</g>
<g>
	<g>
		<rect x="120.1" y="367.9" width="15" height="16"/>
	</g>
</g>
<g>
	<g>
		<rect x="168.1" y="191.7" width="15" height="48"/>
	</g>
</g>
<g>
	<g>
		<rect x="248.2" y="191.7" width="15" height="48"/>
	</g>
</g>
<g>
	<g>
		<rect x="328.3" y="191.7" width="15" height="48"/>
	</g>
</g>
<g>
	<g>
		<rect x="120.1" y="399.9" width="15" height="16"/>
	</g>
</g>
<g>
	<g>
		<rect x="207.7" y="208.2" width="16" height="15"/>
	</g>
</g>
<g>
	<g>
		<rect x="287.7" y="208.2" width="16" height="15"/>
	</g>
</g>
<g>
</g>
<g>
</g>
<g>
</g>
<g>
</g>
<g>
</g>
<g>
</g>
<g>
</g>
<g>
</g>
<g>
</g>
<g>
</g>
<g>
</g>
<g>
</g>
<g>
</g>
<g>
</g>
<g>
</g>
</svg>
