<svg id="Cutline" height="512" viewBox="0 0 64 64" width="512" xmlns="http://www.w3.org/2000/svg"><path d="m7.937 46.349a16.657 16.657 0 0 0 .084 1.687.751.751 0 0 0 .746.673.7.7 0 0 0 .078 0 .75.75 0 0 0 .669-.823 15.07 15.07 0 0 1 -.077-1.533c0-8.023 5.969-26.238 14.51-31.519a29.338 29.338 0 0 0 4.806.944 3.953 3.953 0 0 0 -.791 3.448c.486 1.946-1.363 3.508-1.382 3.524a.75.75 0 0 0 .951 1.159c.108-.087 2.606-2.17 1.886-5.048a2.7 2.7 0 0 1 .995-2.684c.957 1.116 2.506 3.182 2.632 4.567a.75.75 0 0 0 1.494-.136c-.141-1.549-1.377-3.395-2.342-4.624h.1a25.679 25.679 0 0 0 7.756-1.152c8.541 5.281 14.51 23.5 14.51 31.519 0 9.331-8.434 14.9-22.563 14.9-11.491 0-19.441-3.776-21.811-10.36a.75.75 0 1 0 -1.412.508c2.598 7.213 11.063 11.351 23.224 11.351 14.843 0 24.063-6.285 24.063-16.4 0-8.17-6.042-26.584-14.751-32.5a18.808 18.808 0 0 0 2.235-3.337.75.75 0 0 0 -1.326-.7 17.031 17.031 0 0 1 -2.473 3.54c-7.432 2.421-14.991.161-15.613-.034a11.352 11.352 0 0 1 -5.408-9.938 6.99 6.99 0 0 1 5.141 1.419c2.932 2.115 4.552.344 5.623-.825.6-.654 1.115-1.218 1.713-1.225h.013c.594 0 1.381.5 2.341 1.5 1.729 1.8 3.617.993 5.443.211a8.675 8.675 0 0 1 5.337-.969 21.275 21.275 0 0 1 -1.054 3.939.75.75 0 0 0 1.406.524 20.954 20.954 0 0 0 1.228-4.955.752.752 0 0 0 -.529-.785c-2.9-.878-5.16.091-6.979.87-1.865.8-2.8 1.136-3.772.128-1.3-1.351-2.426-1.973-3.452-1.962a4.01 4.01 0 0 0 -2.8 1.711c-1.119 1.22-1.792 1.955-3.641.622a8.1 8.1 0 0 0 -6.991-1.517.75.75 0 0 0 -.51.674 12.905 12.905 0 0 0 5.219 11.266c-8.588 6.074-14.526 24.242-14.526 32.342z"/><path d="m32 48.938a3.873 3.873 0 0 1 -3.869-3.869.75.75 0 0 0 -1.5 0 5.359 5.359 0 0 0 4.619 5.293v2.263a.75.75 0 0 0 1.5 0v-2.263a5.357 5.357 0 0 0 -.75-10.662 3.87 3.87 0 1 1 3.869-3.87.75.75 0 0 0 1.5 0 5.359 5.359 0 0 0 -4.619-5.293v-2.263a.75.75 0 0 0 -1.5 0v2.263a5.357 5.357 0 0 0 .75 10.663 3.869 3.869 0 0 1 0 7.738z"/></svg>